<svg xmlns="http://www.w3.org/2000/svg" fill="#8cc9f0" viewBox="0 0 246.989 246.989"><path d="M246.038 83.955l-39.424-70.664a7.502 7.502 0 00-6.55-3.846H46.93a7.5 7.5 0 00-6.55 3.846L.951 83.955a7.502 7.502 0 00.734 8.391l116.002 142.432c.037.046.08.085.118.13.12.141.244.278.375.41.015.015.028.033.043.048.034.033.069.064.104.096l.037.033a7.878 7.878 0 00.61.518c.145.11.295.213.448.313.072.047.143.094.216.139.129.077.263.148.397.219.055.028.108.059.164.086l.152.074c.149.069.303.128.459.188.097.038.192.079.291.113.019.006.035.015.054.021l.021.005c.066.022.137.034.205.054.253.075.51.136.77.184.108.02.215.04.324.055.309.043.622.07.938.074.029 0 .058.007.088.007h.002c.03 0 .059-.007.088-.007.317-.004.63-.031.939-.074.108-.015.214-.035.321-.054.263-.048.522-.11.776-.186.065-.019.133-.031.198-.052.008-.003.016-.003.023-.006.02-.006.036-.015.055-.022.098-.033.191-.074.287-.11.156-.06.312-.12.462-.189.052-.024.104-.05.155-.075.053-.026.104-.056.155-.082.136-.071.271-.143.401-.221.074-.045.146-.093.22-.141a7.035 7.035 0 00.643-.469c.144-.116.281-.237.414-.362.013-.013.027-.023.04-.035.03-.029.062-.056.092-.086l.049-.053c.134-.135.261-.276.383-.42.036-.042.076-.079.111-.122L245.304 92.346a7.502 7.502 0 00.734-8.391zM138.3 24.446l21.242 55.664H87.457l21.249-55.664H138.3zm21.765 70.664l-36.563 110.967L86.935 95.11h73.13zm-88.923 0l32.524 98.699L23.282 95.11h47.86zm104.716 0h47.851l-80.37 98.696 32.519-98.696zm50.857-15h-51.118l-21.242-55.664h41.306l31.054 55.664zM51.333 24.446H92.65L71.402 80.11H20.274l31.059-55.664z"/></svg>
