<svg xmlns="http://www.w3.org/2000/svg" width="85" height="85" viewBox="0 0 80 80"><path fill="#FFF" d="M40 0c22.091 0 40 17.909 40 40S62.091 80 40 80 0 62.091 0 40 17.909 0 40 0z"/><path fill="#8cc9f0" d="M50.378 32.576a1.821 1.821 0 11-3.643 0 1.821 1.821 0 013.643 0zm4.249-5.463c0-.341-.304-.607-.646-.607-6.601 0-10.223 1.518-14.964 6.241a67.137 67.137 0 00-3.338 3.699l-7.188.379a.692.692 0 00-.493.304l-4.249 7.284a.634.634 0 00.095.739l1.214 1.215c.114.113.285.17.437.17.057 0 .114 0 .17-.02l5.235-1.611 5.33 5.33-1.612 5.236a.652.652 0 00.152.606l1.214 1.214a.667.667 0 00.436.171.587.587 0 00.304-.075l7.283-4.25a.7.7 0 00.305-.492l.379-7.19a66.735 66.735 0 003.699-3.339c4.492-4.514 6.237-8.706 6.237-15.004z"/></svg>
